#!OML:ASF \\Waltz\H\Terrain\Patient Classification 1\Animal2\Wednesday\Animal2.ASF
:FULLY-SPECIFIED
:DEGREES
3736
root 8.31382 16.3978 -1.29157 9.08963 -17.0485 -1.27326
lowerback 9.51147 -3.15677 1.06436
upperback -2.38346 -4.01295 1.00233
thorax -7.85845 -1.98099 1.10894
lowerneck -5.62341 -7.67318 7.45623
upperneck -11.2108 -11.2023 -6.15609
head -3.20426 -5.75038 -2.86944
rclavicle 4.41302e-014 -1.16289e-014
rhumerus -13.3807 -16.5409 -23.0152
rradius 52.4708
rwrist -11.399
rhand -19.2178 15.8027
rfingers 7.12502
rthumb 7.09487 -14.0584
lclavicle 4.41302e-014 -1.16289e-014
lhumerus -37.0497 3.96094 13.1026
lradius 52.6622
lwrist 28.5464
lhand -27.5815 28.4632
lfingers 7.12502
lthumb -0.981698 58.4406
rfemur -36.9493 -17.3396 25.8904
rtibia 59.5835
rfoot -33.1644 -12.0547
rtoes 9.84585
lfemur -42.0517 27.4628 -24.6774
ltibia 61.2691
lfoot -28.9446 6.28503
ltoes -14.907
3737
root 8.32418 16.4207 -1.29155 9.10955 -16.9856 -1.26521
lowerback 9.51541 -3.17354 1.17276
upperback -2.30388 -4.02626 0.945024
thorax -7.78721 -1.99427 0.987332
lowerneck -5.92822 -7.65909 7.58708
upperneck -11.1442 -11.2005 -6.11331
head -3.14079 -5.7622 -2.89194
rclavicle -5.05783e-014 1.91827e-014
rhumerus -13.6574 -16.4473 -23.1476
rradius 52.4164
rwrist -11.1685
rhand -18.2461 15.9668
rfingers 7.12502
rthumb 8.03277 -13.8605
lclavicle -5.05783e-014 1.91827e-014
lhumerus -37.2057 2.76364 13.7022
lradius 52.4801
lwrist 28.6611
lhand -28.1443 28.6156
lfingers 7.12502
lthumb -1.52531 58.5899
rfemur -36.822 -17.3711 25.8574
rtibia 59.282
rfoot -33.0426 -12.0656
rtoes 10.0421
lfemur -41.8275 27.3606 -24.7158
ltibia 60.8622
lfoot -28.8325 6.20825
ltoes -14.966
3738
root 8.33719 16.4483 -1.29033 9.1501 -16.9458 -1.27236
lowerback 9.49627 -3.2322 1.27187
upperback -2.21295 -4.09276 0.949698
thorax -7.68542 -2.03158 0.94266
lowerneck -6.10997 -7.56255 7.68486
upperneck -11.307 -11.1009 -6.14862
head -3.16074 -5.72105 -2.92623
rclavicle -4.07012e-014 -8.44835e-015
rhumerus -13.6401 -16.489 -23.3165
rradius 52.1716
rwrist -10.8305
rhand -17.2273 16.5206
rfingers 7.12502
rthumb 9.01602 -13.2667
lclavicle -4.07012e-014 -8.44835e-015
lhumerus -37.3733 2.00429 14.1434
lradius 51.9871
lwrist 27.9029
lhand -27.5356 28.0389
lfingers 7.12502
lthumb -0.937433 58.0166
rfemur -36.676 -17.403 25.823
rtibia 58.9339
rfoot -32.8967 -12.0664
rtoes 10.0268
lfemur -41.638 27.2667 -24.7599
ltibia 60.4604
lfoot -28.67 5.86795
ltoes -12.95
3739
root 8.34975 16.4724 -1.2921 9.16841 -17.0055 -1.12907
lowerback 9.46564 -3.23841 1.19363
upperback -2.12193 -4.11455 0.910257
thorax -7.56747 -2.04019 0.94221
lowerneck -6.09111 -7.51114 7.69289
upperneck -11.6399 -11.0425 -6.04868
head -3.25515 -5.69664 -2.8925
rclavicle 2.16178e-014 -1.68967e-015
rhumerus -13.7012 -16.6205 -23.4124
rradius 52.0038
rwrist -10.1654
rhand -16.0888 17.3957
rfingers 7.12502
rthumb 10.1144 -12.3412
lclavicle 2.16178e-014 -1.68967e-015
lhumerus -37.3768 1.36084 14.5309
lradius 51.3323
lwrist 27.2221
lhand -27.0876 27.3759
lfingers 7.12502
lthumb -0.504647 57.355
rfemur -36.572 -17.2869 25.6036
rtibia 58.5838
rfoot -32.7764 -11.634
rtoes 11.5689
lfemur -41.4953 27.2147 -24.9893
ltibia 60.1047
lfoot -28.5672 5.55909
ltoes -11.2697
3740
root 8.36144 16.4986 -1.29105 9.32635 -17.1371 -1.171
lowerback 9.37417 -3.17627 1.29438
upperback -2.08285 -4.02214 0.89739
thorax -7.48131 -2.00049 0.850494
lowerneck -6.02845 -7.47202 7.72403
upperneck -11.9582 -10.9964 -5.95104
head -3.35463 -5.67811 -2.86093
rclavicle -3.94339e-014 7.85199e-015
rhumerus -13.9003 -16.7125 -23.362
rradius 51.8338
rwrist -9.46364
rhand -14.9081 17.8682
rfingers 7.12502
rthumb 11.2534 -11.8099
lclavicle -3.94339e-014 7.85199e-015
lhumerus -37.2816 0.774593 14.905
lradius 50.7099
lwrist 26.7581
lhand -26.9575 27.1751
lfingers 7.12502
lthumb -0.379045 57.1545
rfemur -36.5279 -17.0684 25.6066
rtibia 58.1952
rfoot -32.519 -11.3401
rtoes 12.5489
lfemur -41.48 27.3064 -25.0731
ltibia 59.7862
lfoot -28.4983 5.30921
ltoes -10.3429
3741
root 8.37338 16.5247 -1.28767 9.61695 -17.155 -1.48978
lowerback 9.20989 -3.14303 1.63467
upperback -2.04959 -3.93216 1.01988
thorax -7.36648 -1.96942 0.763946
lowerneck -6.08956 -7.41764 7.7391
upperneck -12.2095 -10.9445 -5.95758
head -3.41804 -5.65599 -2.86542
rclavicle -5.03174e-015 4.07509e-015
rhumerus -13.9736 -16.991 -23.2605
rradius 51.5628
rwrist -8.96547
rhand -13.8581 17.989
rfingers 7.12502
rthumb 12.2659 -11.6313
lclavicle -5.03174e-015 4.07509e-015
lhumerus -37.1948 0.548197 15.272
lradius 50.0846
lwrist 25.9616
lhand -26.5907 27.4153
lfingers 7.12502
lthumb -0.0247602 57.395
rfemur -36.5115 -16.8539 25.9459
rtibia 57.7743
rfoot -32.0944 -11.6769
rtoes 10.9087
lfemur -41.5796 27.3398 -24.875
ltibia 59.4849
lfoot -28.3935 5.25329
ltoes -10.5505
3742
root 8.38599 16.5546 -1.28397 9.8613 -17.1389 -1.46525
lowerback 8.95512 -3.13369 1.65835
upperback -2.01957 -3.92188 1.04661
thorax -7.18793 -1.966 0.760119
lowerneck -6.2953 -7.39683 7.87468
upperneck -12.3048 -10.9556 -6.07778
head -3.42824 -5.66948 -2.92969
rclavicle 1.37845e-014 4.07509e-015
rhumerus -14.0543 -17.2712 -23.2927
rradius 51.3671
rwrist -8.81269
rhand -13.2424 18.1404
rfingers 7.12502
rthumb 12.8596 -11.4434
lclavicle 1.37845e-014 4.07509e-015
lhumerus -37.1153 0.725661 15.4617
lradius 49.3525
lwrist 24.7854
lhand -25.9952 27.3366
lfingers 7.12502
lthumb 0.550348 57.3156
rfemur -36.5988 -16.7639 25.9426
rtibia 57.3646
rfoot -31.7154 -11.8136
rtoes 9.96665
lfemur -41.7307 27.1942 -25.0632
ltibia 59.1501
lfoot -28.183 5.42337
ltoes -9.90824
